<?xml version="1.0" encoding="utf-8"?>
<!-- Generator: Adobe Illustrator 17.0.1, SVG Export Plug-In . SVG Version: 6.00 Build 0)  -->
<!DOCTYPE svg PUBLIC "-//W3C//DTD SVG 1.1//EN" "http://www.w3.org/Graphics/SVG/1.1/DTD/svg11.dtd">
<svg version="1.1" id="Logo" xmlns="http://www.w3.org/2000/svg" xmlns:xlink="http://www.w3.org/1999/xlink" x="0px" y="0px"
	 width="100px" height="52.202px" viewBox="0 0 100 52.202" enable-background="new 0 0 100 52.202" xml:space="preserve">
<g id="Type">
	<polygon id="m" fill="#B9E2E2" points="4.833,48.825 3.489,43.789 0,43.789 0,52.066 2.176,52.066 2.176,45.755 3.845,52.066 
		5.807,52.066 7.481,45.755 7.481,52.066 9.652,52.066 9.652,43.789 6.168,43.789 	"/>
	<rect id="i_5_" x="11.273" y="43.789" fill="#B9E2E2" width="2.383" height="1.565"/>
	<rect id="i_6_" x="11.273" y="46.072" fill="#B9E2E2" width="2.383" height="5.994"/>
	<path id="n_1_" fill="#B9E2E2" d="M19.644,45.933c-0.49,0-0.903,0.087-1.242,0.259c-0.341,0.172-0.673,0.455-1.005,0.854v-0.974
		h-2.22v5.994h2.381v-2.88c0-0.544,0.091-0.923,0.27-1.135c0.181-0.209,0.417-0.314,0.704-0.314c0.263,0,0.464,0.078,0.606,0.232
		c0.145,0.158,0.216,0.424,0.216,0.8v3.297h2.396v-3.812c0-0.789-0.187-1.375-0.56-1.75C20.818,46.125,20.301,45.933,19.644,45.933z
		"/>
	<polygon id="v" fill="#B9E2E2" points="26.155,49.87 24.949,46.072 22.47,46.072 25.052,52.066 27.167,52.066 29.809,46.072 
		27.403,46.072 	"/>
	<rect id="i_4_" x="30.58" y="43.789" fill="#B9E2E2" width="2.381" height="1.565"/>
	<rect id="i_3_" x="30.58" y="46.072" fill="#B9E2E2" width="2.381" height="5.994"/>
	<path id="e_2_" fill="#B9E2E2" d="M39.802,46.323c-0.515-0.259-1.217-0.39-2.104-0.39c-1.097,0-1.957,0.292-2.581,0.872
		c-0.62,0.58-0.932,1.338-0.932,2.274c0,0.66,0.156,1.233,0.466,1.719c0.31,0.488,0.702,0.845,1.175,1.068
		c0.47,0.225,1.119,0.337,1.942,0.337c0.947,0,1.674-0.132,2.185-0.392c0.506-0.263,0.939-0.696,1.297-1.297l-2.347-0.21
		c-0.147,0.183-0.285,0.31-0.415,0.379c-0.212,0.114-0.432,0.172-0.667,0.172c-0.37,0-0.673-0.131-0.901-0.39
		c-0.165-0.183-0.268-0.457-0.312-0.825h4.773v-0.261c0-0.789-0.131-1.431-0.401-1.924C40.709,46.961,40.317,46.584,39.802,46.323z
		 M36.614,48.537c0.038-0.357,0.129-0.626,0.274-0.807c0.227-0.29,0.531-0.435,0.907-0.435c0.328,0,0.593,0.096,0.794,0.288
		c0.201,0.192,0.323,0.511,0.372,0.954H36.614z"/>
	<rect id="l_1_" x="42.56" y="43.789" fill="#B9E2E2" width="2.387" height="8.277"/>
	<rect id="l" x="46.55" y="43.789" fill="#B9E2E2" width="2.387" height="8.277"/>
	<path id="e_1_" fill="#B9E2E2" d="M55.779,46.323c-0.513-0.259-1.217-0.39-2.107-0.39c-1.097,0-1.953,0.292-2.579,0.872
		c-0.62,0.58-0.932,1.338-0.932,2.274c0,0.66,0.154,1.233,0.466,1.719c0.312,0.488,0.7,0.845,1.175,1.068
		c0.47,0.225,1.119,0.337,1.942,0.337c0.947,0,1.674-0.132,2.185-0.392c0.506-0.263,0.938-0.696,1.295-1.297l-2.345-0.21
		c-0.149,0.183-0.29,0.31-0.415,0.379c-0.212,0.114-0.432,0.172-0.667,0.172c-0.374,0-0.671-0.131-0.903-0.39
		c-0.163-0.183-0.265-0.457-0.31-0.825h4.777v-0.261c0-0.789-0.138-1.431-0.406-1.924C56.686,46.961,56.294,46.584,55.779,46.323z
		 M52.591,48.537c0.04-0.357,0.131-0.626,0.274-0.807c0.225-0.29,0.528-0.435,0.907-0.435c0.328,0,0.591,0.096,0.794,0.288
		c0.203,0.192,0.323,0.511,0.372,0.954H52.591z"/>
	<rect id="i_2_" x="59.555" y="43.789" fill="#B9E2E2" width="1.137" height="8.277"/>
	<path id="n" fill="#B9E2E2" d="M67.223,46.642c-0.156-0.214-0.392-0.383-0.707-0.513c-0.314-0.129-0.66-0.196-1.034-0.196
		c-0.86,0-1.52,0.332-1.977,0.99v-0.852h-0.947v5.994h1.052v-3.275c0-0.767,0.163-1.288,0.49-1.565
		c0.326-0.274,0.713-0.41,1.161-0.41c0.279,0,0.524,0.06,0.733,0.183c0.207,0.123,0.354,0.285,0.435,0.49
		c0.085,0.207,0.125,0.517,0.125,0.93v3.647h1.054v-3.687c0-0.47-0.02-0.8-0.06-0.988C67.486,47.101,67.377,46.852,67.223,46.642z"
		/>
	<path id="s" fill="#B9E2E2" d="M73.019,48.9c-0.297-0.12-0.814-0.279-1.563-0.47c-0.513-0.134-0.823-0.223-0.929-0.259
		c-0.183-0.071-0.317-0.163-0.401-0.272c-0.085-0.105-0.129-0.223-0.129-0.357c0-0.205,0.103-0.388,0.308-0.542
		c0.21-0.154,0.553-0.232,1.037-0.232c0.412,0,0.729,0.087,0.952,0.261c0.225,0.174,0.359,0.415,0.408,0.722l1.028-0.136
		c-0.065-0.388-0.185-0.696-0.363-0.927c-0.176-0.232-0.446-0.415-0.816-0.553c-0.368-0.134-0.796-0.203-1.284-0.203
		c-0.326,0-0.626,0.042-0.91,0.123c-0.283,0.08-0.506,0.181-0.669,0.297c-0.218,0.152-0.392,0.341-0.519,0.568
		c-0.125,0.227-0.192,0.475-0.192,0.742c0,0.292,0.078,0.562,0.234,0.802c0.154,0.245,0.379,0.435,0.678,0.571
		c0.299,0.138,0.834,0.301,1.605,0.49c0.575,0.138,0.934,0.254,1.077,0.343c0.21,0.131,0.312,0.312,0.312,0.542
		c0,0.256-0.118,0.479-0.35,0.669c-0.236,0.19-0.595,0.285-1.077,0.285c-0.482,0-0.856-0.109-1.124-0.321
		c-0.265-0.214-0.428-0.524-0.486-0.927l-1.043,0.158c0.116,0.635,0.388,1.117,0.809,1.44c0.426,0.323,1.041,0.486,1.846,0.486
		c0.488,0,0.925-0.083,1.313-0.247c0.386-0.163,0.68-0.395,0.887-0.693c0.203-0.299,0.305-0.617,0.305-0.958
		c0-0.343-0.083-0.635-0.25-0.867C73.545,49.201,73.311,49.023,73.019,48.9z"/>
	<path id="t_2_" fill="#B9E2E2" d="M77.054,51.196c-0.158,0-0.276-0.025-0.361-0.074c-0.085-0.049-0.145-0.116-0.183-0.198
		c-0.036-0.08-0.054-0.268-0.054-0.557v-3.506h1.059v-0.789h-1.059v-2.096l-1.048,0.609v1.487h-0.771v0.789h0.771v3.449
		c0,0.611,0.042,1.01,0.127,1.201c0.087,0.189,0.236,0.343,0.446,0.457c0.212,0.118,0.508,0.176,0.889,0.176
		c0.236,0,0.499-0.029,0.798-0.089l-0.154-0.898C77.324,51.183,77.17,51.196,77.054,51.196z"/>
	<rect id="i_1_" x="78.55" y="43.789" fill="#B9E2E2" width="1.054" height="1.17"/>
	<rect id="i" x="78.55" y="46.072" fill="#B9E2E2" width="1.054" height="5.994"/>
	<path id="t_1_" fill="#B9E2E2" d="M83.044,51.196c-0.154,0-0.274-0.025-0.359-0.074c-0.082-0.049-0.145-0.116-0.181-0.198
		c-0.036-0.08-0.056-0.268-0.056-0.557v-3.506h1.061v-0.789h-1.061v-2.096l-1.048,0.609v1.487H80.63v0.789h0.771v3.449
		c0,0.611,0.045,1.01,0.127,1.201c0.089,0.189,0.236,0.343,0.446,0.457c0.212,0.118,0.508,0.176,0.892,0.176
		c0.232,0,0.499-0.029,0.796-0.089l-0.152-0.898C83.318,51.183,83.164,51.196,83.044,51.196z"/>
	<path id="u" fill="#B9E2E2" d="M88.499,49.282c0,0.513-0.058,0.903-0.172,1.172c-0.114,0.27-0.312,0.482-0.588,0.638
		s-0.573,0.234-0.889,0.234c-0.317,0-0.58-0.076-0.796-0.23c-0.214-0.149-0.354-0.361-0.419-0.626
		c-0.045-0.185-0.067-0.542-0.067-1.074v-3.324h-1.054v3.714c0,0.432,0.025,0.749,0.067,0.95c0.062,0.294,0.172,0.546,0.323,0.751
		c0.154,0.205,0.39,0.374,0.709,0.511c0.319,0.136,0.662,0.205,1.028,0.205c0.831,0,1.487-0.341,1.968-1.019v0.883h0.945v-5.994
		h-1.054V49.282z"/>
	<path id="t" fill="#B9E2E2" d="M93.039,51.196c-0.154,0-0.274-0.025-0.357-0.074c-0.087-0.049-0.145-0.116-0.183-0.198
		c-0.04-0.08-0.056-0.268-0.056-0.557v-3.506h1.059v-0.789h-1.059v-2.096l-1.048,0.609v1.487h-0.774v0.789h0.774v3.449
		c0,0.611,0.045,1.01,0.129,1.201c0.085,0.189,0.234,0.343,0.444,0.457c0.212,0.118,0.511,0.176,0.889,0.176
		c0.236,0,0.502-0.029,0.796-0.089l-0.152-0.898C93.311,51.183,93.16,51.196,93.039,51.196z"/>
	<path id="e" fill="#B9E2E2" d="M99.912,49.056c0-0.99-0.263-1.757-0.789-2.303c-0.531-0.546-1.206-0.82-2.038-0.82
		c-0.858,0-1.556,0.281-2.095,0.836c-0.537,0.559-0.807,1.342-0.807,2.35c0,0.976,0.265,1.732,0.8,2.271
		c0.531,0.542,1.248,0.811,2.16,0.811c0.725,0,1.315-0.169,1.779-0.508c0.464-0.339,0.782-0.816,0.952-1.429l-1.088-0.129
		c-0.158,0.428-0.375,0.742-0.649,0.936c-0.27,0.196-0.6,0.294-0.987,0.294c-0.519,0-0.952-0.176-1.3-0.524
		c-0.348-0.352-0.54-0.854-0.58-1.514h4.632C99.91,49.208,99.912,49.117,99.912,49.056z M95.329,48.492
		c0.036-0.524,0.218-0.941,0.548-1.253c0.33-0.312,0.738-0.47,1.219-0.47c0.537,0,0.97,0.196,1.304,0.588
		c0.218,0.252,0.352,0.631,0.399,1.135H95.329z"/>
</g>
<g id="Icon">
	<path id="I" fill="#A0A09F" d="M70.937,30.383v0.852H57.932v-0.852h0.727c1.288,0,2.227-0.377,2.811-1.128
		c0.368-0.49,0.548-1.674,0.548-3.547V5.528c0-1.581-0.096-2.625-0.294-3.132c-0.156-0.385-0.47-0.714-0.945-0.991
		c-0.678-0.369-1.382-0.553-2.12-0.553h-0.727V0h13.005v0.853h-1.13c-1.273,0-2.202,0.377-2.786,1.129
		c-0.386,0.492-0.577,1.673-0.577,3.547v20.18c0,1.58,0.1,2.626,0.301,3.132c0.152,0.383,0.475,0.713,0.968,0.99
		c0.66,0.37,1.362,0.553,2.095,0.553H70.937z"/>
	<path id="M" fill="#B9E2E2" d="M57.014,5.412L48.286,24.44L36.953,0h-8.845v0.853c1.275,0,2.2,0.151,2.775,0.449
		c0.577,0.299,0.97,0.672,1.186,1.117c0.308,0.613,0.461,1.614,0.461,2.995v20.408c0,1.75-0.169,2.871-0.506,3.364
		c-0.553,0.798-1.489,1.197-2.809,1.197h-1.108v0.852H38.98v-0.852h-1.106c-1.228,0-2.127-0.321-2.695-0.968
		c-0.412-0.475-0.62-1.674-0.62-3.593V4.953l12.069,26.281h0.76l9.626-20.924V5.412z"/>
</g>
<g>
</g>
<g>
</g>
<g>
</g>
<g>
</g>
<g>
</g>
<g>
</g>
</svg>
